PathFileType	4	(X/Y/Z)	Run_300 02
DataRate	CameraRate	NumFrames	NumMarkers	Units	OrigDataRate	OrigDataStartFrame	OrigNumFrames
100	100	4	45	mm	100	421	137
Frame#	Time	LASI			RASI			LPSI			RPSI			RTH1			RTH2			RTH3			LTH1			LTH2			LTH3			RTB1			RTB2			RTB3			RLMAL			RMMAL			LTB1			LTB2			LTB3			RCAL			RTOE			RMT5			LCAL			LTOE			LMT5			LACR			RACR			CLAV			C7			LPSH			RUA1			RUA2			RUA3			RLEL			RMEL			LUA1			LUA2			LUA3			LLEL			LMEL			RFAsuperior			RFAradius			RFAulna			LFAsuperior			LFAradius			LFAulna		
		X1	Y1	Z1	X2	Y2	Z2	X3	Y3	Z3	X4	Y4	Z4	X5	Y5	Z5	X6	Y6	Z6	X7	Y7	Z7	X8	Y8	Z8	X9	Y9	Z9	X10	Y10	Z10	X11	Y11	Z11	X12	Y12	Z12	X13	Y13	Z13	X14	Y14	Z14	X15	Y15	Z15	X16	Y16	Z16	X17	Y17	Z17	X18	Y18	Z18	X19	Y19	Z19	X20	Y20	Z20	X21	Y21	Z21	X22	Y22	Z22	X23	Y23	Z23	X24	Y24	Z24	X25	Y25	Z25	X26	Y26	Z26	X27	Y27	Z27	X28	Y28	Z28	X29	Y29	Z29	X30	Y30	Z30	X31	Y31	Z31	X32	Y32	Z32	X33	Y33	Z33	X34	Y34	Z34	X35	Y35	Z35	X36	Y36	Z36	X37	Y37	Z37	X38	Y38	Z38	X39	Y39	Z39	X40	Y40	Z40	X41	Y41	Z41	X42	Y42	Z42	X43	Y43	Z43	X44	Y44	Z44	X45	Y45	Z45	

421	  4.210000	917.152921	1043.314944	-460.529507	927.216192	1038.690025	-229.185080	751.176283	1082.978860	-388.922239	757.204836	1082.807320	-300.666538	815.835601	784.764954	-193.455789	875.503575	709.988864	-236.607007	791.490270	617.952066	-239.194258	886.044184	834.242368	-512.413149	1012.939176	780.013491	-508.935952	1015.214569	674.019658	-499.860663	759.831271	373.218692	-314.101690	698.092707	335.320810	-275.562988	655.750765	221.421198	-332.040454	564.634232	141.962401	-321.028740	590.105408	160.017073	-402.061096	1024.276444	477.571232	-472.374324	890.067367	472.920381	-493.825605	869.926047	362.414829	-465.693608	495.553261	133.006258	-387.043791	704.977121	 62.659571	-366.033786	634.744871	 57.599391	-293.035309	692.390100	329.438736	-416.454771	832.531877	160.268037	-461.965327	775.326660	196.769704	-522.888403	861.431906	1553.622662	-493.719688	909.896898	1521.756763	-182.454756	962.126580	1469.328801	-325.751928	848.781743	1560.776975	-330.754441	778.243795	1518.403733	-489.480414	886.330578	1370.129873	-91.265175	808.167669	1317.690052	-83.036979	827.516486	1262.743435	-43.922889	848.363292	1200.327058	-24.235940	799.859023	1182.719160	-99.232748	756.618257	1451.296780	-554.290472	687.390957	1384.734379	-536.257696	683.367804	1348.741481	-602.183555	668.284518	1277.760147	-634.761591	648.181044	1257.666591	-547.111846	902.173919	1157.154408	-61.517994	1047.538619	1217.806659	-182.516678	1056.966001	1151.788687	-167.473339	736.079066	1212.545098	-611.303959	899.489252	1243.632579	-556.782585	894.475132	1179.549838	-581.112590	
422	  4.220000	919.340179	1052.575322	-460.315985	929.640908	1044.681418	-230.452020	754.784852	1092.353359	-390.134306	760.538833	1090.570190	-300.944963	808.117949	792.705863	-194.191365	864.563895	715.956260	-237.684921	776.221027	627.441832	-237.767582	889.935990	844.615412	-513.252510	1016.730400	791.242197	-507.698768	1019.589150	684.648966	-498.681787	737.395712	382.620620	-310.551051	675.013324	345.487008	-272.129467	633.014304	231.049437	-328.350738	542.268259	150.663269	-318.616887	568.526731	168.723484	-399.075988	1037.578377	484.012959	-470.259049	904.404640	468.068675	-492.434240	893.243576	356.269567	-463.829969	473.960720	147.133292	-384.536619	674.163634	 62.127143	-364.910303	606.926934	 58.590579	-292.600563	718.631867	308.616889	-415.285729	873.209085	152.039804	-459.509249	813.434575	183.243657	-521.060257	858.257071	1561.389461	-493.174368	911.403150	1531.545429	-183.511492	962.520740	1478.399191	-327.009422	848.897080	1568.656088	-331.025325	775.344245	1526.399647	-487.077407	890.861203	1380.251932	-91.758710	813.570791	1327.890242	-81.050202	834.024905	1272.636051	-43.151533	855.333113	1209.999893	-24.205486	804.066472	1192.825304	-97.897747	751.789884	1460.331484	-551.085684	682.884690	1394.535034	-530.574136	676.221254	1358.379152	-596.071709	659.674341	1287.130662	-628.055542	642.219699	1268.208634	-539.895767	908.609065	1169.207302	-64.563414	1047.040599	1236.457468	-190.052459	1059.023955	1170.642499	-176.149705	728.372243	1222.677248	-604.936815	892.785376	1256.234674	-555.272189	887.814382	1191.447535	-577.079210	
423	  4.230000	921.362403	1062.097354	-460.677053	932.285838	1051.201979	-231.857778	758.469220	1101.804082	-391.070700	763.882288	1098.628519	-301.058090	801.458719	801.487234	-194.333561	854.792781	722.707609	-237.544914	762.537794	637.776867	-235.520569	892.523914	854.751792	-513.808021	1019.216346	801.289042	-506.729178	1022.288545	694.214927	-497.466494	717.047503	393.079963	-306.123997	653.920760	356.794040	-267.795861	612.720015	241.510290	-323.777770	522.055213	160.102647	-315.562328	549.868032	177.829437	-395.024031	1049.461082	489.674979	-468.030324	918.428486	462.160868	-490.994881	916.597677	349.815596	-461.561500	455.519807	162.373701	-381.927105	644.482546	 61.751186	-363.619587	579.582228	 59.507520	-292.292419	746.289497	287.470068	-413.993568	914.308978	144.647668	-455.417473	852.720189	170.053501	-518.066947	855.789005	1569.181144	-492.748936	912.808012	1541.294715	-184.475787	963.024160	1487.563740	-328.056187	849.179734	1576.678739	-331.173716	773.041738	1534.555049	-484.808829	894.428192	1390.523869	-92.087443	817.640976	1337.941798	-80.455178	838.929292	1282.833624	-42.875570	861.145560	1219.876820	-24.229566	807.218088	1202.714687	-96.592313	747.689709	1469.312974	-547.443351	679.270287	1404.169289	-524.134246	669.777516	1368.385337	-589.458601	651.723629	1296.612493	-620.689515	636.875053	1278.859709	-532.068626	913.852891	1181.248262	-67.339543	1045.454435	1254.320224	-196.817966	1059.811569	1188.960191	-183.744327	721.339216	1232.737495	-598.356817	886.716923	1268.404894	-553.485445	881.742923	1203.061782	-572.923000	
424	  4.240000	923.252729	1071.550456	-461.422696	935.062611	1058.216277	-233.233627	761.739088	1110.896541	-391.159315	767.056807	1106.679506	-300.925041	796.008247	810.715411	-193.670355	846.213518	729.852350	-235.996889	750.311762	648.634560	-232.991962	894.071379	864.450712	-514.188010	1020.492962	810.074065	-505.937044	1023.321996	702.502650	-496.086235	698.907187	404.025206	-300.602663	634.620118	368.855445	-262.796737	594.963713	252.186075	-318.592842	504.034002	169.960439	-311.963361	534.374476	186.753347	-390.158219	1059.746192	494.474211	-466.069542	931.890456	455.294074	-489.524385	939.776107	343.120192	-458.967990	440.488833	178.468527	-379.124487	615.999427	 61.849577	-362.642130	552.625433	 60.989070	-291.852238	775.222620	266.239180	-412.437349	955.553860	138.231423	-450.125774	892.773214	157.379809	-514.026678	854.014496	1576.845689	-492.431736	914.096335	1550.708764	-185.434154	963.629638	1496.524988	-328.899330	849.576111	1584.596841	-331.296529	771.339141	1542.745683	-482.740684	896.982164	1400.687306	-92.241065	820.510272	1347.547296	-81.011803	842.400039	1292.985600	-42.823931	865.840124	1229.658112	-24.326219	809.564739	1212.256721	-95.526828	744.338951	1478.211004	-543.516436	676.590165	1413.560012	-517.319136	664.150283	1378.562270	-582.581351	644.528834	1306.014912	-612.783716	632.209000	1289.410608	-523.746588	918.004432	1192.867810	-69.791368	1043.083537	1271.071036	-202.726085	1059.620968	1206.270898	-190.443829	715.028199	1242.609749	-591.626671	881.341814	1279.950244	-551.334289	876.304245	1214.146211	-568.771332	
